<svg xmlns="http://www.w3.org/2000/svg" viewBox="0 0 512 500" fill="#E1AC33">
  <g transform="scale(0.81) translate(85, 60)">
    <path d="M304.376,140h2.117a4,4,0,0,0,0-8h-2.117a15.832,15.832,0,0,1-12.669-6.381,4,4,0,0,0-6.428,4.762A23.863,23.863,0,0,0,304.376,140Z"/>
    <path d="M295.294,124h16a4,4,0,0,0,4-4V96a4,4,0,0,0-8,0v20h-12a4,4,0,0,0,0,8Z"/>
    <path d="M431.646,105.213a4,4,0,0,0,5.657,0l31.3-31.3a22.582,22.582,0,0,0-31.936-31.935l-2.19,2.19-2.19-2.19a22.581,22.581,0,0,0-31.935,31.935Z"/>
    <path d="M386.543,151.828a4,4,0,0,0,5.658,0l12.24-12.241a11.268,11.268,0,0,0-15.069-16.716,11.268,11.268,0,0,0-15.07,16.716Z"/>
    <path d="M96.015,130.828a4,4,0,0,0,5.657,0l19.056-19.056A15.313,15.313,0,1,0,99.071,90.116l-.227.227-.227-.227a15.314,15.314,0,0,0-21.658,21.656Z"/>
    <path d="M503.113,434.676,476,212.465A46.047,46.047,0,0,0,430.3,172H299.292v-8h37.7a28,28,0,0,0,27.254-34.416l-15.06-64.021A59.1,59.1,0,0,0,243.557,44.755l-41.93,58.689A38.3,38.3,0,0,0,232.792,164h26.5v8H69.4a45.814,45.814,0,0,0-45.843,41.836L4.229,425.076A54,54,0,0,0,58,484h3v12a4,4,0,0,0,4,4H433a4,4,0,0,0,4-4V484h22.43a44,44,0,0,0,43.681-49.324ZM263.292,180a4,4,0,0,0,4-4V120a4,4,0,0,0-4-4,12,12,0,1,1,0-24,11.862,11.862,0,0,1,7.164,2.373,4,4,0,0,0,4.679.082A98.126,98.126,0,0,0,285.55,86.1,97.655,97.655,0,0,0,300.979,68a42.544,42.544,0,0,0,21.989,26.309l.324.162V120a28.011,28.011,0,0,1-36.645,26.636,4,4,0,1,0-2.47,7.609,35.766,35.766,0,0,0,7.115,1.506V176a4,4,0,0,0,4,4h18.974a35.995,35.995,0,0,1-71.545,0ZM31.525,214.564A37.853,37.853,0,0,1,69.4,180H234.683a43.991,43.991,0,0,0,87.62,0h108a38.048,38.048,0,0,1,37.76,33.435L482.6,332.609l-18.82,1.844a55.31,55.31,0,0,0,2.068-7.713l.063-.325A55.355,55.355,0,0,0,462,293.263l-25.35-56.5a4,4,0,1,0-7.3,3.275l25.35,56.5a47.382,47.382,0,0,1,3.352,28.371l-.063.327a47.779,47.779,0,0,1-26.681,34.338A4,4,0,0,0,429,363.2V396H385.814l-10.4-23.406a14.475,14.475,0,0,0-8.046-7.634,39.116,39.116,0,0,0-3.644-10.927,40.275,40.275,0,0,0-6.958-9.742,64.045,64.045,0,0,0,17.273-16.8l16.167,8.083a4,4,0,1,0,3.578-7.156L378.15,320.6a55.053,55.053,0,0,0,3.743-9.524l13.557,1.883a4,4,0,1,0,1.1-7.924l-13.012-1.807a53.4,53.4,0,0,0,.462-6.994c0-.962-.036-1.918-.088-2.869l12.53-1.392a4,4,0,0,0-.884-7.952l-12.682,1.41a54.464,54.464,0,0,0-1.59-5.924l12.632-50.551a8,8,0,0,0-10.9-9.306l-45.651,19.568a75.494,75.494,0,0,0-20.759-3.055c-.2-.009-.407-.011-.6-.011a75.867,75.867,0,0,0-21.378,3.059l-45.639-19.562a8,8,0,0,0-10.9,9.3l12.628,50.543a54.675,54.675,0,0,0-1.589,5.94l-12.676-1.409a4,4,0,0,0-.884,7.952l12.53,1.392c-.052.951-.088,1.906-.088,2.869,0,.773.013,1.544.054,2.25q.1,2.4.405,4.744l-13.009,1.807a4,4,0,1,0,1.1,7.924l13.538-1.88a55.122,55.122,0,0,0,3.7,9.55l-15.58,7.79a3.965,3.965,0,0,0-1.284,6.125A71.038,71.038,0,0,0,184.4,396H99.582l14.059-156a4,4,0,0,0-7.968-.719l-9.019,100.08-75.908-7ZM316,368.258a4,4,0,0,0,4-4v-6.02a8,8,0,1,1-8,0v6.02A4,4,0,0,0,316,368.258Zm3.086-36.814L316,330.415l-3.087,1.029a13.719,13.719,0,0,1-4.349.706,13.879,13.879,0,0,1-12.037-6.966,4,4,0,0,1,6.946-3.969,5.851,5.851,0,0,0,6.91,2.639l1.617-.538v-4.172l-5.039-10.078a7.51,7.51,0,0,1,6.717-10.867h4.644a7.51,7.51,0,0,1,6.717,10.867L320,319.144v4.172l1.616.538a5.853,5.853,0,0,0,6.911-2.639,4,4,0,0,1,6.946,3.969A13.873,13.873,0,0,1,319.086,331.444Zm-15.659,23.849a15.91,15.91,0,0,0-3.235,7.515c-18.853-3.3-32.759-12.213-35.633-22.648h4.918A71.25,71.25,0,0,0,303.427,355.293ZM284,288.155a8,8,0,1,1,8,8A8,8,0,0,1,284,288.155Zm48,0a8,8,0,1,1,8,8A8,8,0,0,1,332,288.155Zm17.582,60.294a32.159,32.159,0,0,1,5.246,6.148,66.758,66.758,0,0,1-23.02,8.21,15.918,15.918,0,0,0-3.248-7.532A73.322,73.322,0,0,0,349.582,348.449ZM261.393,332.16H255.28a71.273,71.273,0,0,0-7.442.394l10.041-5.021C258.974,329.124,260.141,330.672,261.393,332.16ZM58,476A46,46,0,0,1,12.2,425.805l7.822-85.477,75.919,7L91.549,396H63a4,4,0,0,0,0,8H241.757a4,4,0,0,0,3.625-2.309l11.884-25.47a7.3,7.3,0,0,1,6.6-4.221,7.274,7.274,0,0,1,6.68,10.152l-7.008,16.265A4,4,0,0,0,267.214,404H335a6,6,0,0,1,0,12H297a4,4,0,1,0,0,8h46a6,6,0,0,1,0,12H289a4,4,0,1,0,0,8h38a6,6,0,0,1,0,12H289a4,4,0,1,0,0,8h30a6,6,0,0,1,0,12Zm371,16H69v-8H429Zm57.392-28.139A36.029,36.029,0,0,1,459.432,476h-127.8a13.9,13.9,0,0,0-.331-12.682A13.952,13.952,0,0,0,339.632,444H343a14,14,0,0,0,4.3-27.318A13.9,13.9,0,0,0,347.632,404h11.582a4,4,0,0,0,3.737-5.426l-6.794-17.8A6.466,6.466,0,0,1,362.2,372a6.472,6.472,0,0,1,5.91,3.842l11.45,25.781A4,4,0,0,0,383.214,404h88a4,4,0,0,0,0-8H437V365.682a55.8,55.8,0,0,0,23.086-22.83l23.482-2.3,11.6,95.1A36,36,0,0,1,486.394,463.861Z"/>
  </g>
</svg>