<svg xmlns="http://www.w3.org/2000/svg" xmlns:xlink="http://www.w3.org/1999/xlink" version="1.1" x="0px" y="0px" viewBox="0 0 100 125" enable-background="new 0 0 100 100" xml:space="preserve"><path d="M92.973,58.393c-0.072-0.726-0.568-1.336-1.397-1.723c-0.877-0.408-2.068-0.551-3.542-0.426  c-5.354,0.178-9.969-0.113-13.341-0.845c-2.945-0.642-4.916-1.615-5.562-2.748c-0.118-0.787-0.054-1.689,0.249-2.751  c4.668-4.023,3.39-7.88,2.153-11.611c-0.501-1.515-1.02-3.079-1.132-4.646c0.521-3.539,0.407-7.826-1.018-9.479  c-0.398-0.463-0.896-0.708-1.437-0.708c-0.919,0-1.013,0.849-1.104,1.67c-0.126,1.14-0.313,2.838-1.958,4.839  c-1.896-0.937-6.051-1.007-8.427,0.626c-1.455-1.794-1.897-3.514-2.226-4.788c-0.311-1.208-0.578-2.25-1.694-2.25  c-0.48,0-0.901,0.194-1.253,0.578c-1.217,1.33-1.564,5.051-1.035,11.029c0.444,3.614,0.679,7.34-1.714,9.698  c-2.207,2.172-6.456,2.84-12.629,1.985c-5.683-1.127-10.768-1.016-15.051,0.295c-1.508-1.361-1.863-3.145-1.107-5.591  c0.729-2.358,2.356-4.985,4.079-7.767c3.131-5.055,6.369-10.282,4.679-14.733c-1.109-2.918-4.195-5.099-9.434-6.663l-0.017-0.005  c-3.291-0.833-6.053-0.69-7.036,0.364c-0.317,0.34-0.417,0.755-0.281,1.17c0.301,0.915,1.688,1.647,3.903,2.064  c4.639,0.924,7.363,2.424,8.328,4.586c1.445,3.239-1.159,7.631-3.917,12.281c-3.372,5.688-6.855,11.562-2.964,15.869  c-1.014,0.555-1.967,1.193-2.852,1.918c-4.654,3.82-7.217,9.85-7.217,16.979c0,2.888,1.902,4.7,6.168,5.88  c4.622,1.276,12.32,1.875,24.213,1.88c3.162,2.938,8.941,5.509,17.874,7.98c1.19,0.292,2.254,0.438,3.199,0.438  c1.446,0,2.615-0.344,3.534-1.031c1.454-1.09,2.223-3.012,2.348-5.872v-0.02c0-0.473-0.178-0.992-0.484-1.507  c0.021,0,0.04,0.002,0.062,0.002c0.904,0,2.34-0.06,3.717-0.356c0.344,1.188,1.101,1.859,1.829,2.006l0,0  c1.428,0.359,4.262,0.548,7.47,0.548c2.178,0,4.537-0.089,6.732-0.27c1.405-0.156,2.854-0.79,3.969-1.74  c1.208-1.027,1.932-2.327,2.035-3.659c0.162-2.049-1.013-5.87-10.61-8.558c-0.176-0.647-0.452-1.224-0.803-1.749  c0.972,0.009,1.894,0.025,2.791,0.043c1.012,0.02,1.98,0.038,2.916,0.038c2.069,0,3.973-0.092,5.811-0.466  C92.013,60.938,93.09,59.562,92.973,58.393z M67.69,25.221c0.035-0.333,0.093-0.838,0.181-0.902c0,0,0.019-0.01,0.076-0.01  c0.293,0,0.554,0.134,0.792,0.413c0.629,0.729,1.003,2.284,1.085,4.248c-0.354-0.197-0.8-0.201-1.238-0.204  c-0.496-0.003-0.963-0.007-1.222-0.29c-0.129-0.144-0.208-0.367-0.238-0.665C67.518,26.768,67.617,25.876,67.69,25.221z   M68.651,37.513c0.011,0.618-0.17,1.121-0.399,1.123c-0.23,0.004-0.424-0.494-0.434-1.11c-0.008-0.618,0.17-1.121,0.4-1.123  C68.449,36.398,68.644,36.896,68.651,37.513z M59.502,37.084c0.228-0.032,0.479,0.439,0.563,1.05  c0.083,0.612-0.034,1.133-0.262,1.164c-0.229,0.031-0.48-0.439-0.564-1.05C59.156,37.636,59.273,37.116,59.502,37.084z   M16.628,41.678c0.751-2.654,2.482-5.574,4.156-8.398c1.02-1.719,2.019-3.405,2.811-5.028c1.13-0.101,2.265-0.668,3.262-1.606  c-0.969,2.19-2.372,4.457-3.754,6.689c-1.752,2.828-3.408,5.5-4.168,7.964c-0.795,2.578-0.466,4.595,1.007,6.143  c-0.713,0.253-1.402,0.542-2.066,0.865C16.233,46.597,15.834,44.482,16.628,41.678z M84.168,68.303  c2.238,1.188,3.868,2.91,4.402,4.631c-0.762,1.89-2.975,3.286-4.979,3.511c-5.256,0.434-11.623,0.315-13.907-0.257v0.003  c-0.009-0.003-0.017-0.007-0.026-0.009c-0.889-0.163-1.358-1.487-1.349-2.651c0.008-0.994,0.364-2.215,1.335-2.376  c3.784-0.565,7.345-0.413,12.699,0.545c0.231,0.041,0.452-0.113,0.493-0.344c0.043-0.231-0.112-0.453-0.342-0.494  c-5.454-0.976-9.091-1.129-12.983-0.547c-1.232,0.204-2.039,1.464-2.055,3.209c-0.001,0.228,0.012,0.441,0.033,0.647  c-1.758,0.381-3.68,0.349-4.258,0.326c-0.905-1.025-2.249-1.927-3.606-2.284c-1.529-0.401-2.771-0.037-3.544,1.023  c-7.073-3.402-8.168-5.203-8.838-10.604c-0.029-0.233-0.241-0.398-0.475-0.37c-0.233,0.029-0.399,0.242-0.37,0.476  c0.412,3.326,1.03,5.498,3.112,7.446c1.99,1.863,5.281,3.49,11.047,6.025c0.055,0.024,0.113,0.036,0.171,0.036  c0.163,0,0.319-0.095,0.39-0.254c0.095-0.216-0.004-0.467-0.219-0.562c-1.512-0.664-2.847-1.264-4.031-1.819  c0.707-0.826,1.746-0.782,2.539-0.574c1.948,0.514,4.088,2.51,4.097,3.823c-0.027,0.622-0.088,1.193-0.179,1.715  c-4.053,1.526-9.351-1.121-13.627-3.261c-3.274-1.638-5.862-2.932-7.085-1.934c-0.745,0.608-0.853,1.98-0.33,4.281  c-2.743-1.45-4.654-2.967-5.764-4.567c-0.134-0.193-0.399-0.241-0.592-0.107c-0.193,0.135-0.241,0.399-0.107,0.592  c0.221,0.319,0.47,0.633,0.744,0.942c-1.257-0.004-2.463-0.015-3.625-0.033c3.041-5.051,3.918-8.435,2.682-10.338  c-1.783-2.742-7.513-1.971-13.58-1.153c-5.299,0.714-10.769,1.447-13.751-0.123c0.114-0.626,0.25-1.241,0.41-1.841  c1.515,0.282,3.134,0.422,4.809,0.422c3.245,0,6.694-0.521,9.972-1.537c4.999-1.55,8.915-4.002,10.743-6.727  c1.277-1.903,1.471-3.852,0.577-5.686c0.316,0.057,0.633,0.114,0.952,0.178l0.024,0.004c0.721,0.1,1.413,0.178,2.081,0.238  c-0.641,2.283,0.377,4.896,2.969,7.595c3.729,3.885,10.093,7.126,13.563,7.126c0.456,0,0.862-0.056,1.205-0.174  c0.736-0.252,1.168-0.779,1.249-1.522c0.956-5.321-1.867-7.633-4.358-9.672c-2.056-1.683-3.843-3.149-3.141-6.033  c0.364-0.393,0.668-0.812,0.922-1.253c1.904,0.363,3.509,0.522,4.86,0.522c5.643,0,6.929-2.727,7.765-4.5  c0.223-0.473,0.416-0.88,0.646-1.112c1.188-1.244,2.114-1.412,3.097-0.562l0.017,0.014c0.598,0.42,1.103,1.082,1.59,1.721  c0.919,1.207,1.866,2.45,3.478,2.142c0.121,0.805,0.147,1.608,0.014,2.412c-1.611,0.319-3.147,0.059-4.26-0.73  c-0.819-0.582-1.344-1.405-1.497-2.34c0.276-0.102,0.533-0.312,0.741-0.611c0.229-0.33,0.36-0.722,0.334-0.997  c-0.024-0.267-0.215-0.712-1.207-0.712c-0.119,0-0.247,0.005-0.38,0.018c-1.312,0.125-1.459,0.666-1.43,0.978  c0.043,0.452,0.614,1.253,1.354,1.377c0.004,0.949-0.482,1.963-1.362,2.814c-1.363,1.322-3.37,1.96-5.371,1.708  c-0.156-0.021-0.297,0.09-0.316,0.245c-0.02,0.156,0.09,0.297,0.246,0.318c0.311,0.038,0.622,0.057,0.932,0.057  c1.849,0,3.632-0.688,4.904-1.92c0.65-0.63,1.108-1.346,1.347-2.076c0.304,0.625,0.771,1.172,1.378,1.604  c0.896,0.638,2.036,0.967,3.267,0.967c0.389,0,0.786-0.036,1.188-0.103c-0.364,1.352-1.222,2.713-2.868,4.109l-0.097,0.082  l-0.036,0.121c-0.354,1.181-0.442,2.199-0.331,3.091c-4.615,4.678-6.586,10.555-4.583,13.724c2.188,3.461,7.797,2.096,10.941,0.976  C77.57,66.328,81.137,66.693,84.168,68.303z M65.635,41.062c-0.514,0.042-1.011-0.63-1.034-0.881  c-0.013-0.134,0.299-0.3,0.918-0.359c0.115-0.011,0.225-0.016,0.326-0.016c0.373,0,0.632,0.079,0.643,0.197  c0.01,0.103-0.058,0.364-0.236,0.622S65.848,41.041,65.635,41.062z M89.668,60.359l0.047,0.422l-0.085-0.416  c-2.577,0.525-5.347,0.473-8.551,0.412c-1.105-0.022-2.246-0.044-3.479-0.045c-1.023-1.129-2.385-2.005-3.722-2.864  c-1.636-1.05-3.153-2.026-4.028-3.356c1.744,1.127,4.692,1.919,8.589,2.324c0.211,1.321,0.936,2.278,2.117,2.785  c0.661,0.284,1.427,0.411,2.243,0.411c2.553,0,5.607-1.245,7.56-2.862c1.142,0.226,1.712,0.746,1.767,1.308  C92.205,59.257,91.307,60.173,89.668,60.359z"/><text x="0" y="115" fill="#000000" font-size="5px" font-weight="bold" font-family="'Helvetica Neue', Helvetica, Arial-Unicode, Arial, Sans-serif">Created by Alejandro Capellan</text><text x="0" y="120" fill="#000000" font-size="5px" font-weight="bold" font-family="'Helvetica Neue', Helvetica, Arial-Unicode, Arial, Sans-serif">from the Noun Project</text></svg>