<svg xmlns="http://www.w3.org/2000/svg" viewBox="0 0 512 640" x="0px" y="0px"><g><path d="M491.63,340.81,475.24,214.62A30.636,30.636,0,0,0,444.94,188c-.15,0-.29.03-.43.04-.14-.01-.28-.04-.43-.04H396l.01-31.01A13.864,13.864,0,0,0,404,144.44V118.88a28.708,28.708,0,0,0-36.82-27.56,27.991,27.991,0,0,0-7.45,3.41l-5.33,3.42H328a4,4,0,0,0-4,4v12.39a21.955,21.955,0,0,0,16,21.16v23.45a23.035,23.035,0,0,0,16,21.91V188H295.43a38.387,38.387,0,0,0-34.36,21.56l-47.11,97.46L148,283.47V272.94l2.68-5.35a53.829,53.829,0,0,0-3.35-53.81,4.008,4.008,0,0,0-6.16-.61l-6.27,6.27a53.788,53.788,0,0,0-14.12,24.95L116.88,260H59.3a11.995,11.995,0,1,0-14.99,15.41,36.5,36.5,0,0,0,27.07,30.56l-9.32,37.28a84.137,84.137,0,0,0,.4,42.18L44.77,468h-.08a24.406,24.406,0,0,0-21.95,13.56l-2.24,4.5a4.187,4.187,0,0,0-.25,3.34A4.01,4.01,0,0,0,24,492h8.58l5.53-11.06a37.6,37.6,0,0,1,23.85-19.61l.07-.07,17.89-83.51a4,4,0,1,1,7.83,1.67L69.33,465.38a4.128,4.128,0,0,1-3.19,3.19,29.586,29.586,0,0,0-20.87,15.95l-.85,1.69A4,4,0,0,0,48,492H88a4,4,0,0,0,3.81-2.79l.19-.6,5.31-16.98,7.44-23.82,10.64,12.57A28.026,28.026,0,0,1,120,460h.19a63.23,63.23,0,0,1,16.72-52.3,4,4,0,1,1,5.81,5.5,55.211,55.211,0,0,0-13.83,49.93,4.011,4.011,0,0,1-3.91,4.87H120a19.932,19.932,0,0,0-14.13,5.86,20.473,20.473,0,0,0-2.97,3.77q-.255.42-.48.84a17.436,17.436,0,0,0-.84,1.74A19.857,19.857,0,0,0,100,488a4.018,4.018,0,0,0,4,4h59.973a70.141,70.141,0,0,0,38.907-11.78l1.32-.88A71.405,71.405,0,0,0,236,419.92a93.141,93.141,0,0,0-1.027-14.219,47.442,47.442,0,0,0-8.492-20.49L215.09,369.43l-1.22-1.22A43.314,43.314,0,0,0,226,369.94a44.235,44.235,0,0,0,40.49-26.43L292,284.83v80.51L237.48,388.3A79.284,79.284,0,0,1,244,419.92V420h39.85a4.105,4.105,0,0,1,4.07,3.18A4,4,0,0,1,284,428H243.58a79.4,79.4,0,0,1-34.95,58l-1.31.87a78.363,78.363,0,0,1-8.91,5.13H252v-4a24.8,24.8,0,0,1,13.79-22.31L285.16,456,300,366.97V224.15a4.105,4.105,0,0,0-3.18-4.07A4,4,0,0,0,292,224v40.77l-4.56,10.48-39.65-19.83,20.48-42.38A30.352,30.352,0,0,1,295.43,196h61a20.062,20.062,0,0,0,3.69,8.17,20,20,0,0,0,34.82-5.74,20.192,20.192,0,0,0,.64-2.43h48.5c.15,0,.29-.03.43-.04.14.01.28.04.43.04a22.607,22.607,0,0,1,22.36,19.65L474.1,268H429.3l-6.68-46.22a22.416,22.416,0,0,1,1.18-11.11,4,4,0,0,0-7.49-2.81,30.507,30.507,0,0,0-1.61,15.07l17.33,119.73L426.99,348H406.03l-9.61-29.15-7.78-26.09a35.581,35.581,0,0,0-68.99,4.96L311.28,348h-.01L292.4,461.27l-23.03,11.57A16.858,16.858,0,0,0,260,488v4H408.17A43.83,43.83,0,0,0,452,448.17V406.68l28.17-30.18A43.868,43.868,0,0,0,491.63,340.81ZM46.04,267.46a3.862,3.862,0,0,1-1.5-1.5,3.971,3.971,0,0,1,5.42-5.42,3.862,3.862,0,0,1,1.5,1.5A3.971,3.971,0,0,1,46.04,267.46ZM204,402.39l-16,6.75v-3.33c0-2.04-.09-4.11-.25-6.14s-.43-4.08-.76-6.07l-1.16-6.97a74.237,74.237,0,0,0-14.58-33.25L204,364.839ZM284.25,282.6l-25.1,57.72a36.142,36.142,0,0,1-44.91,19.62l-55.88-19.55A74.413,74.413,0,0,0,148,333.57v-41.6l66.65,23.8a4.014,4.014,0,0,0,4.95-2.03l24.71-51.11ZM391.23,150.19a3.985,3.985,0,0,0-3.22,3.92L388,192a12,12,0,0,1-21.52,7.31A12.1,12.1,0,0,1,364,192v-9.87a33.061,33.061,0,0,0,11.34-2.36,4.109,4.109,0,0,0,2.58-4.53,4.009,4.009,0,0,0-5.45-2.94,24.844,24.844,0,0,1-9.7,1.85,14.964,14.964,0,0,1-14.77-15V136.44a21.964,21.964,0,0,0,6.01-1.4l18.58-7.27a24.365,24.365,0,0,0,7.56,13.06,4,4,0,0,0,5.64-.3,5.789,5.789,0,0,1,4.36-1.95,5.861,5.861,0,0,1,5.85,5.68v.18A5.876,5.876,0,0,1,391.23,150.19ZM375.5,395.29l7.66-45.97a4,4,0,0,1,7.9,1.31l-7.67,45.98a4,4,0,0,1-3.94,3.34,4.887,4.887,0,0,1-.66-.05A4.013,4.013,0,0,1,375.5,395.29ZM356,484H268.94a8.9,8.9,0,0,1,4-4l24-12H356ZM474.32,371.04,380.23,471.85a4.035,4.035,0,0,1-5.43.4L347.37,450.3a4,4,0,0,1-.41-5.87L365,425.32a3.995,3.995,0,0,0-1.39-6.44l-8.6-3.54c-.02-.01-.03-.01-.05-.02a1.739,1.739,0,0,1,.73-3.32h21.98l61.5-65.25a3.981,3.981,0,0,0,1.05-3.32L430.46,276h44.68l8.56,65.84A35.885,35.885,0,0,1,474.32,371.04Z"/></g><text x="0" y="527" fill="#000000" font-size="5px" font-weight="bold" font-family="'Helvetica Neue', Helvetica, Arial-Unicode, Arial, Sans-serif">Created by Chattapat</text><text x="0" y="532" fill="#000000" font-size="5px" font-weight="bold" font-family="'Helvetica Neue', Helvetica, Arial-Unicode, Arial, Sans-serif">from the Noun Project</text></svg>