<svg xmlns="http://www.w3.org/2000/svg" viewBox="0 0 512 640" x="0px" y="0px"><g><path d="M270.968,130.278l-2.287.728a4,4,0,1,0,2.424,7.623l2.287-.727a26.517,26.517,0,0,0,16.99-16.617,4,4,0,1,0-7.568-2.592A18.489,18.489,0,0,1,270.968,130.278Z"/><path d="M259.72,119.013a4,4,0,0,0,5.024,2.6l12.968-4.122a4,4,0,1,0-2.423-7.625l-9.156,2.911L259.1,90.651a4,4,0,1,0-7.624,2.424Z"/><path d="M502.038,376.665l-35.424-22.542L471.356,308a45.915,45.915,0,0,0,14.334-71.142,73.873,73.873,0,0,1-6.168-8.274l2.687-26.134a40.115,40.115,0,0,0-27.521-42.26,80.809,80.809,0,0,0-20.067-20.577l-3.508-2.5a80.557,80.557,0,0,1-23.143-25.684l-1.96-3.461A88.567,88.567,0,0,0,364.8,70.778a80.268,80.268,0,0,1-15.715-9.152,80.133,80.133,0,0,1-13.239-12.458l-17.23-20.381A65.278,65.278,0,0,0,205.259,86.046l6.772,28.462A74.59,74.59,0,0,0,116.46,98.521L77.5,121.93H47.682a22.141,22.141,0,1,0-32.939,25.058,21.825,21.825,0,0,0,7.082,12.862l5.412,4.772a42.644,42.644,0,0,0,34.709,10.172l49.882-7.653a2.158,2.158,0,0,1,.332-.021,2.294,2.294,0,0,1,.788,4.446L66.493,188.678a19.744,19.744,0,0,0-10.815,27.353l1.22,2.42a4,4,0,0,0,4.04,2.172l47.587-5.6c.988-.115,1.976-.169,2.964-.194l-59.12,95.506a71.742,71.742,0,0,0,102.155,96.553L167.5,397.8l1.8.486V496a4,4,0,0,0,4,4H499.89a4,4,0,0,0,4-4V380.04A4,4,0,0,0,502.038,376.665ZM26.448,142.347A14.144,14.144,0,1,1,40.592,128.2,14.159,14.159,0,0,1,26.448,142.347ZM245.787,70.79A44.006,44.006,0,0,0,283.313,86.1a4,4,0,0,0,3.475-2.89,14.138,14.138,0,1,1,20.617,16.1,4,4,0,0,0-2.025,3.478v59.43a4,4,0,0,0,4,4h15.383a32.263,32.263,0,0,1-48.257,23.905l1.886-.094a4,4,0,0,0,2.551-6.9L263.076,166.22H273.09a4,4,0,0,0,4-4v-8.486c.257,0,.512.03.77.03q1.2,0,2.414-.083a36.039,36.039,0,0,0,8.426-1.609,4,4,0,0,0-2.419-7.625,28.029,28.029,0,0,1-6.553,1.253,26.694,26.694,0,0,1-6.008-.261H273.7l-.012,0a27.6,27.6,0,0,1-22.27-19.027L239.063,87.5a14.1,14.1,0,0,1,6.724-16.711ZM226.139,227.11a13.58,13.58,0,0,0-4.88-.823,452.435,452.435,0,0,0,34.7-35.469c1.064.043,2.13.068,3.2.068h0q6.877,8.444,14.012,16.659a448.44,448.44,0,0,1-40.024,40.447l1.182-4.011A13.779,13.779,0,0,0,226.139,227.11ZM180.794,117.258a4,4,0,0,1,5.253,2.1l6.179,14.418a73.072,73.072,0,0,0,70.5,44.022,4,4,0,0,1,.4,7.99q-1.986.1-3.961.1a81.139,81.139,0,0,1-74.29-48.959l-6.179-14.417A4,4,0,0,1,180.794,117.258ZM164.222,270.525a451.126,451.126,0,0,0,43.563-32.39l-12.232,41.679-23.989,16.794-8.475-25.34Zm.506,30.868-21.273,14.892L160.5,288.75ZM121.143,114.034a4,4,0,0,1,5.657,5.656,5.248,5.248,0,0,0,1.363,8.4l.708.353a5.237,5.237,0,0,0,6.056-.981l4.359-4.36a4,4,0,1,1,5.657,5.657l-4.359,4.359a13.228,13.228,0,0,1-15.292,2.481l-.707-.353a13.248,13.248,0,0,1-3.442-21.216Zm-.85,101.771a32.454,32.454,0,0,1,22.914,21.233L157.2,278.883l-14.272,23.055-56.47-31.474Zm29.643,184.527a63.753,63.753,0,0,1-90.765-85.787l23.071-37.271,56.47,31.474L126.419,328.6a4,4,0,0,0,5.7,5.383l69.177-48.424a3.993,3.993,0,0,0,1.543-2.15l13.251-45.154a5.562,5.562,0,0,1,7.278-3.646,5.761,5.761,0,0,1,3.3,7.107l-6.454,21.9a4,4,0,0,0,6.127,4.411L271.4,236.573a5.072,5.072,0,1,1,5.8,8.32l-29.952,20.883a4,4,0,0,0,4.576,6.563L281.6,251.582a5.072,5.072,0,0,1,5.8,8.322l-29.766,20.755a4,4,0,0,0,4.575,6.563l29.766-20.755a5.072,5.072,0,1,1,5.8,8.32L268.01,295.543a4,4,0,1,0,4.576,6.562l28.886-20.142a6.144,6.144,0,0,1,8.554,1.525,4,4,0,0,1-1,5.572l-59.087,41.311c-.078.046-.162.077-.239.129-.1.068-.182.154-.274.229ZM177.3,492V400.451l17.737,4.919,11.3,86.63Zm88.7,0,2.032-34.533q3.707,3.039,7.488,5.933L279.1,492Zm186.009-74.069a41.365,41.365,0,0,1-52.148,35.642L177.3,392.164v-1.221l73.637-51.506,4.244,6.251a4,4,0,0,0,2.246,1.609l128.639,35.479a4,4,0,0,0,5.042-3.441l6.03-57.764,63.917,8.4Zm-54.042-104.32,9.079-86.976a4,4,0,1,0-7.957-.83l-8.209,78.64A665.476,665.476,0,0,1,276.436,199.059,40.271,40.271,0,0,0,332.82,166.22H442.29a32.13,32.13,0,0,1,31.961,35.411L461.874,322.008Z"/></g><text x="0" y="527" fill="#000000" font-size="5px" font-weight="bold" font-family="'Helvetica Neue', Helvetica, Arial-Unicode, Arial, Sans-serif">Created by Chattapat</text><text x="0" y="532" fill="#000000" font-size="5px" font-weight="bold" font-family="'Helvetica Neue', Helvetica, Arial-Unicode, Arial, Sans-serif">from the Noun Project</text></svg>