<svg xmlns="http://www.w3.org/2000/svg" data-name="Layer 1" viewBox="-5.0 -10.0 110.0 135.0" x="0px" y="0px"><path d="M88.13,17.28c-6.14-5.5-14.37-6-22.06-1.32-2.58,2-5.43,2-9,.15l-.94-.39C35,7.41,22.07,19.63,9.54,31.44L8.93,32h0A4.1,4.1,0,0,0,7.4,35c-.32,3,1.48,7.2,4.71,11C5.7,64.47,0,84.79,12.52,93a.5.5,0,0,0,.27.08H91a.49.49,0,0,0,.4-.2.5.5,0,0,0,.08-.43L85,68.46A5.68,5.68,0,0,0,86,69a2.13,2.13,0,0,0,.81.16,2.19,2.19,0,0,0,1.37-.49,2.16,2.16,0,0,0,.76-2.09C86.8,54.91,84.48,49,81.11,46.66a13.42,13.42,0,0,0,7.4-5.32l3.13,3a.51.51,0,0,0,.44.13.47.47,0,0,0,.36-.28C97.69,33,94.06,22.58,88.13,17.28ZM81.18,64.84a21.84,21.84,0,0,0,2.49,2.65l6.71,24.58h-9.2ZM56.63,17l7.21,4.5a3.87,3.87,0,0,0,4.66-.39l2.55-2.24a4,4,0,0,1,3.2-1.09c.62.08,2.45.33,2.51,4.36L62.35,25.26a9.79,9.79,0,0,0-4.41,2.17c-2.46,2.16-4.79,6.48-5.6,10.29l0,0-.3-.15-.09,0h0c-3.29-10.21,0-16,4.16-20.71ZM11.38,31.08C23.69,19.5,35.6,9.07,55.09,16.41,51.15,21,47.8,27,50.71,36.92A13,13,0,0,0,47,35.76a2.78,2.78,0,0,0-3.07,2.39,9.25,9.25,0,0,0,.27,3.46v0a0,0,0,0,0,0,0A18.4,18.4,0,0,0,48.59,49c.1,1,.14,2,.19,3.1.14,3.42.29,7.28,2.4,11.18-5,6.46-16.56,15-30.67,19l16-35.45s0,0,0,0l8.11-18a.51.51,0,0,0-.92-.42L35.9,45.77C31.52,41.32,26,37.86,20.14,34.21L17.56,32.6A9.83,9.83,0,0,0,12.17,31,6.63,6.63,0,0,0,11.38,31.08ZM51.07,38.2c-1.17,1.91-3.13,2.82-6,2.79a8.08,8.08,0,0,1-.15-2.72,1.77,1.77,0,0,1,2-1.51A13.32,13.32,0,0,1,51.07,38.2ZM12.94,92.07c-11.82-7.9-6.1-27.88.2-46v0a.14.14,0,0,0,0-.06c1-3,2.13-6,3.22-9l1.16-3.22,2.06,1.29c5.92,3.69,11.51,7.18,15.85,11.68L19.16,82.86a.51.51,0,0,0,.46.71l.13,0c15-4,27.32-13.14,32.43-19.92a.5.5,0,0,0,0-.55c-2.14-3.78-2.29-7.45-2.43-11,0-.64-.06-1.26-.09-1.87l7.41,8a4.32,4.32,0,0,1,1,4.33c-1.18,3.39-5.31,7.73-9.67,12.31-5.09,5.35-10.84,11.4-13.09,17.23Zm67.24,0H36.44c2.28-5.54,7.81-11.37,12.73-16.54,4.44-4.67,8.64-9.08,9.89-12.68a5.29,5.29,0,0,0-1.22-5.33l-8.39-9A18.81,18.81,0,0,1,45.35,42c3.09,0,5.3-1.16,6.61-3.35l.5.27c1.4.76,2.87,1.66,4.26,2.53a52,52,0,0,0,9.21,3.92l.33.12c1.95.68,3.86,1.36,5.88,2.18a12.9,12.9,0,0,1,7.11,7.06,12.53,12.53,0,0,1,.93,4.76ZM79.82,46c-2-.77-4.36-.55-7.49.7-1.77-.71-3.47-1.32-5.17-1.92C70.44,39,67.39,34.57,64,31.28a83.9,83.9,0,0,1,11.71-4.16,7.34,7.34,0,0,0,3.36-2l.41-.42a4.75,4.75,0,0,1,3.18-1.22,2,2,0,0,1,1.64.73,2,2,0,0,1,.42,1.69l-1.1,5.23a7.58,7.58,0,0,0,1.93,7.37l2.2,2.11A12.51,12.51,0,0,1,79.82,46ZM63.68,48.25a2.83,2.83,0,1,0,2.82,2.83A2.83,2.83,0,0,0,63.68,48.25ZM78,58.62c-1.43.32-1.79,2.16-2.2,4.28-.64,3.29-1.44,7.37-6,8.49a1.26,1.26,0,0,1-1.48-.92c-1.53-5.11-1-11.22,1.59-19.24a.5.5,0,0,0-1-.3c-2.67,8.21-3.18,14.51-1.59,19.82a2.31,2.31,0,0,0,2.18,1.68,2.2,2.2,0,0,0,.5-.06c5.2-1.28,6.1-5.9,6.76-9.27.35-1.79.65-3.32,1.44-3.5a.5.5,0,0,0-.22-1ZM76.53,34.71a.5.5,0,0,0,0-1,1.44,1.44,0,1,1,0-2.87.5.5,0,0,0,0-1,2.44,2.44,0,1,0,0,4.87Zm.85,5.92a.5.5,0,0,0,0-1,2.44,2.44,0,0,0,0,4.87.5.5,0,0,0,0-1,1.44,1.44,0,0,1,0-2.87Zm4.33-9.07a.51.51,0,0,0-.45-.55.52.52,0,0,0-.55.45l-.36,3.6a1.81,1.81,0,0,1-1.44,1.61l-7.58,1.67a.5.5,0,0,0,.11,1h.11l7.57-1.67a2.83,2.83,0,0,0,2.23-2.49Zm0,7.72A.51.51,0,0,0,81,39a.5.5,0,0,0-.29.65l1.44,3.74a.51.51,0,0,0,.47.32l.18,0a.5.5,0,0,0,.29-.65Z"/><text x="0.0" y="117.5" font-size="5.0" font-weight="bold" font-family="Arbeit Regular, Helvetica, Arial-Unicode, Arial, Sans-serif" fill="#000000">Created by Ashwin Vgl</text><text x="0.0" y="122.5" font-size="5.0" font-weight="bold" font-family="Arbeit Regular, Helvetica, Arial-Unicode, Arial, Sans-serif" fill="#000000">from Noun Project</text></svg>